Coordinates
version=1
nRows=12
nColumns=33
inDegrees=yes

Units are S.I. units (second, meters, Newtons, ...)
Angles are in degrees.

endheader
time	ground_thorax_rot_x	ground_thorax_rot_y	ground_thorax_rot_z	ground_thorax_tx	ground_thorax_ty	ground_thorax_tz	clav_prot_r	clav_elev_r	scapula_abduction_r	scapula_elevation_r	scapula_upward_rot_r	scapula_winging_r	shoulder_elv_r	plane_of_elev_r	axial_rot_r	elbow_flexion_r	pro_sup_r	wrist_flex_r	wrist_dev_r	clav_prot_l	clav_elev_l	scapula_abduction_l	scapula_elevation_l	scapula_upward_rot_l	scapula_winging_l	shoulder_elv_l	plane_of_elev_l	axial_rot_l	elbow_flexion_l	pro_sup_l	wrist_flex_l	wrist_dev_l
      4.34000000	    -42.11678731	     -2.94543382	      4.01005256	   -141.32692368	    892.08429686	     -0.64954627	     -0.28134436	    -45.00000000	     45.00000000	    -45.00000000	     23.29934583	   2411.05743329	   -646.61594370	     22.66893890	   -179.99999979	   1804.54903391	   -102.00578109	     20.28208938	     14.92228890	     16.65379591	     41.00721808	    -43.70866584	    -45.00000000	    -36.57512191	   -272.84022049	  -2447.13042038	     22.66111026	    -32.12782169	    730.06907509	     16.52065168	     10.28687305	    -22.34136250
      4.35000000	    -42.29560780	     -2.95566606	      4.03819467	   -137.58024875	    889.53384279	     -0.34464534	     -0.53502648	    -45.00000000	     45.00000000	    -45.00000000	     23.82068727	   2411.07679762	   -647.04209478	     22.61622615	   -179.99999979	   1804.70511680	   -104.37775331	     19.98161312	     15.10125178	     16.79091003	     41.21412634	    -43.94271997	    -45.00000000	    -36.22488768	   -273.03309006	  -2447.38739106	     22.74574308	    -31.82370794	    729.75919917	     13.13788831	     10.99841284	    -22.09478698
      4.36000000	    -42.43759498	     -3.18389553	      4.21779388	   -133.77039935	    886.75905695	     -0.03292466	     -0.62352253	    -45.00000000	     45.00000000	    -45.00000000	     24.07710703	   2411.08297175	   -647.44811997	     22.58712927	   -179.99999979	   1804.89018735	   -106.57564863	     19.69592697	     15.24418869	     16.75815972	     41.45637302	    -44.12372650	    -45.00000000	    -35.63106138	   -273.14157708	  -2447.86828132	     22.74082305	    -31.81078482	    729.45837139	     10.37366192	     11.44086834	    -21.81169273
      4.37000000	    -42.55799069	     -3.10563730	      4.22749376	   -129.90706498	    883.77498602	      0.29008879	     -0.96961936	    -45.00000000	     45.00000000	    -45.00000000	     24.76586508	   2410.95695771	   -647.85442990	     22.54524446	   -179.99999979	   1805.04014088	   -108.97735374	     19.36470761	     15.37769739	     16.95356665	     41.65282779	    -44.44114814	    -45.00000000	    -35.27978715	   -273.38145537	  -2448.17356215	     22.81135910	    -31.58475077	    729.32525138	      7.83573577	     11.94978019	    -21.52969999
      4.38000000	    -42.61900373	     -3.20809834	      4.23854826	   -126.00384916	    880.59003900	      0.62621308	     -0.29595150	    -45.00000000	     45.00000000	    -45.00000000	     23.18888165	   2411.08032796	   -648.79952079	     22.85490403	   -179.99999979	   1804.85315637	   -110.80664732	     19.81466822	     15.57088659	     15.53741212	     41.68425973	    -44.35126374	    -45.00000000	    -34.36707813	   -273.22490592	  -2448.91788220	     23.37874790	    -31.68105224	    729.05189479	      6.41572041	     12.47226670	    -21.24398972
      4.39000000	    -42.75189865	     -3.31279555	      4.41078974	   -122.08069157	    877.20358222	      0.97357838	     -1.34044060	    -45.00000000	     45.00000000	    -45.00000000	     25.34514490	   2410.77491677	   -648.84708672	     22.48489524	   -179.99999979	   1805.40116320	   -113.13702270	     18.88158288	     15.58281556	     16.99517255	     42.07654478	    -44.92938842	    -45.00000000	    -34.40694678	   -273.71027474	  -2449.14480750	     23.06161056	    -30.97540483	    728.95309249	      4.73433845	     12.54753792	    -20.97615973
      4.40000000	    -42.84967132	     -3.03936244	      4.08723341	   -118.15150754	    873.61375931	      1.32854274	     -1.97561385	    -45.00000000	     45.00000000	    -45.00000000	     26.39731009	   2410.63449965	   -649.38942890	     22.36206067	   -179.99999979	   1805.72810581	   -115.87606275	     18.30663580	     15.65933563	     17.37614668	     42.11165833	    -45.00000000	    -45.00000000	    -34.12583657	   -274.43243564	  -2449.11188277	     23.09530150	    -30.35603605	    728.93087366	      3.44150947	     12.96160642	    -20.66942872
      4.41000000	    -42.90626216	     -3.33055587	      4.27830567	   -114.23121589	    869.82129786	      1.68752154	     -0.96839267	    -45.00000000	     45.00000000	    -45.00000000	     24.14781029	   2410.76440057	   -650.51858756	     22.61788710	   -179.99999979	   1805.49887353	   -117.75815477	     18.74460386	     15.87417944	     15.68246990	     42.06344704	    -45.00000000	    -45.00000000	    -33.63211350	   -274.28562383	  -2449.89480810	     23.62034043	    -30.65853545	    728.72456545	      3.03762705	     13.23077761	    -20.37962848
      4.42000000	    -42.94160090	     -3.42373723	      4.34332742	   -110.33453271	    865.82823677	      2.04843842	     -2.45083556	    -45.00000000	     45.00000000	    -45.00000000	     26.84433865	   2410.35522857	   -650.47729284	     22.18235616	   -179.99999979	   1806.28296533	   -120.31612200	     17.56597890	     15.72072981	     17.51208836	     42.40483520	    -45.00000000	    -45.00000000	    -33.55365292	   -275.29673817	  -2449.84134480	     23.33234623	    -29.62794040	    728.67671333	      2.32318835	     13.26702250	    -20.14469649
      4.43000000	    -42.96395886	     -3.40168522	      4.26332823	   -106.46526672	    861.65153718	      2.41348059	     -2.78249848	    -45.00000000	     45.00000000	    -45.00000000	     27.16016912	   2410.18631018	   -651.11978932	     22.10452812	   -179.99999979	   1806.64939279	   -123.17854119	     17.13732932	     15.77990157	     17.61567734	     42.37990926	    -45.00000000	    -45.00000000	    -33.54608636	   -276.00785074	  -2450.00624666	     23.51552667	    -28.59896975	    728.53433888	      1.91758520	     13.60774964	    -19.83819907
      4.44000000	    -42.93573507	     -3.81232539	      4.61921563	   -102.62575762	    857.31384247	      2.78700111	     -2.81973652	    -45.00000000	     45.00000000	    -45.00000000	     26.84016499	   2410.07529223	   -651.64059739	     21.98867964	   -179.99999979	   1806.97244575	   -125.62250629	     16.70716009	     15.74005466	     17.78084190	     42.50230576	    -45.00000000	    -45.00000000	    -33.67526301	   -276.50275888	  -2450.47488154	     23.66159768	    -28.21538701	    728.33761920	      1.76194339	     13.72259272	    -19.57735680
      4.45000000	    -42.97492902	     -4.07293530	      4.79747654	    -98.81371171	    852.84649523	      3.17494339	     -2.98657297	    -45.00000000	     45.00000000	    -45.00000000	     26.86268010	   2409.84280536	   -652.28750568	     21.84514342	   -179.99999979	   1807.28309024	   -127.97581768	     16.30592543	     15.67822724	     17.92942215	     42.58272595	    -45.00000000	    -45.00000000	    -33.67760859	   -277.01343397	  -2450.83848926	     23.77916240	    -27.62716882	    728.14685403	      1.58887109	     13.91851114	    -19.29969872
